<mxfile host="app.diagrams.net" agent="Mozilla/5.0 (Windows NT 10.0; Win64; x64) AppleWebKit/537.36 (KHTML, like Gecko) Chrome/131.0.0.0 Safari/537.36" version="25.0.1">
  <diagram id="C5RBs43oDa-KdzZeNtuy" name="Page-1">
    <mxGraphModel dx="1050" dy="522" grid="1" gridSize="10" guides="1" tooltips="1" connect="1" arrows="1" fold="1" page="1" pageScale="1" pageWidth="827" pageHeight="1169" math="0" shadow="0">
      <root>
        <mxCell id="WIyWlLk6GJQsqaUBKTNV-0" />
        <mxCell id="WIyWlLk6GJQsqaUBKTNV-1" parent="WIyWlLk6GJQsqaUBKTNV-0" />
        <mxCell id="VpipOVB_wmoP1vpL5UUP-6" style="edgeStyle=orthogonalEdgeStyle;rounded=0;orthogonalLoop=1;jettySize=auto;html=1;exitX=0.5;exitY=1;exitDx=0;exitDy=0;entryX=0.5;entryY=0;entryDx=0;entryDy=0;" edge="1" parent="WIyWlLk6GJQsqaUBKTNV-1" source="VpipOVB_wmoP1vpL5UUP-0" target="VpipOVB_wmoP1vpL5UUP-3">
          <mxGeometry relative="1" as="geometry" />
        </mxCell>
        <mxCell id="VpipOVB_wmoP1vpL5UUP-0" value="start" style="ellipse;whiteSpace=wrap;html=1;" vertex="1" parent="WIyWlLk6GJQsqaUBKTNV-1">
          <mxGeometry x="80" y="80" width="120" height="80" as="geometry" />
        </mxCell>
        <mxCell id="VpipOVB_wmoP1vpL5UUP-7" style="edgeStyle=orthogonalEdgeStyle;rounded=0;orthogonalLoop=1;jettySize=auto;html=1;exitX=0.5;exitY=1;exitDx=0;exitDy=0;" edge="1" parent="WIyWlLk6GJQsqaUBKTNV-1" source="VpipOVB_wmoP1vpL5UUP-3" target="VpipOVB_wmoP1vpL5UUP-4">
          <mxGeometry relative="1" as="geometry" />
        </mxCell>
        <mxCell id="VpipOVB_wmoP1vpL5UUP-3" value="int n" style="rounded=0;whiteSpace=wrap;html=1;" vertex="1" parent="WIyWlLk6GJQsqaUBKTNV-1">
          <mxGeometry x="80" y="200" width="120" height="60" as="geometry" />
        </mxCell>
        <mxCell id="VpipOVB_wmoP1vpL5UUP-10" style="edgeStyle=orthogonalEdgeStyle;rounded=0;orthogonalLoop=1;jettySize=auto;html=1;exitX=1;exitY=0.5;exitDx=0;exitDy=0;entryX=0;entryY=0.5;entryDx=0;entryDy=0;" edge="1" parent="WIyWlLk6GJQsqaUBKTNV-1" source="VpipOVB_wmoP1vpL5UUP-4" target="VpipOVB_wmoP1vpL5UUP-9">
          <mxGeometry relative="1" as="geometry" />
        </mxCell>
        <mxCell id="VpipOVB_wmoP1vpL5UUP-4" value="nhập n" style="shape=parallelogram;perimeter=parallelogramPerimeter;whiteSpace=wrap;html=1;fixedSize=1;" vertex="1" parent="WIyWlLk6GJQsqaUBKTNV-1">
          <mxGeometry x="80" y="310" width="120" height="60" as="geometry" />
        </mxCell>
        <mxCell id="VpipOVB_wmoP1vpL5UUP-14" style="edgeStyle=orthogonalEdgeStyle;rounded=0;orthogonalLoop=1;jettySize=auto;html=1;exitX=1;exitY=0.5;exitDx=0;exitDy=0;entryX=0;entryY=0.5;entryDx=0;entryDy=0;" edge="1" parent="WIyWlLk6GJQsqaUBKTNV-1" source="VpipOVB_wmoP1vpL5UUP-9" target="VpipOVB_wmoP1vpL5UUP-11">
          <mxGeometry relative="1" as="geometry" />
        </mxCell>
        <mxCell id="VpipOVB_wmoP1vpL5UUP-15" style="edgeStyle=orthogonalEdgeStyle;rounded=0;orthogonalLoop=1;jettySize=auto;html=1;exitX=0.5;exitY=0;exitDx=0;exitDy=0;entryX=0.5;entryY=1;entryDx=0;entryDy=0;" edge="1" parent="WIyWlLk6GJQsqaUBKTNV-1" source="VpipOVB_wmoP1vpL5UUP-9" target="VpipOVB_wmoP1vpL5UUP-12">
          <mxGeometry relative="1" as="geometry" />
        </mxCell>
        <mxCell id="VpipOVB_wmoP1vpL5UUP-18" value="" style="edgeStyle=orthogonalEdgeStyle;rounded=0;orthogonalLoop=1;jettySize=auto;html=1;" edge="1" parent="WIyWlLk6GJQsqaUBKTNV-1" source="VpipOVB_wmoP1vpL5UUP-9" target="VpipOVB_wmoP1vpL5UUP-11">
          <mxGeometry relative="1" as="geometry" />
        </mxCell>
        <mxCell id="VpipOVB_wmoP1vpL5UUP-9" value="n % 2 == 0?" style="rhombus;whiteSpace=wrap;html=1;" vertex="1" parent="WIyWlLk6GJQsqaUBKTNV-1">
          <mxGeometry x="270" y="300" width="80" height="80" as="geometry" />
        </mxCell>
        <mxCell id="VpipOVB_wmoP1vpL5UUP-20" style="edgeStyle=orthogonalEdgeStyle;rounded=0;orthogonalLoop=1;jettySize=auto;html=1;exitX=0.5;exitY=0;exitDx=0;exitDy=0;entryX=0.5;entryY=1;entryDx=0;entryDy=0;" edge="1" parent="WIyWlLk6GJQsqaUBKTNV-1" source="VpipOVB_wmoP1vpL5UUP-11" target="VpipOVB_wmoP1vpL5UUP-13">
          <mxGeometry relative="1" as="geometry" />
        </mxCell>
        <mxCell id="VpipOVB_wmoP1vpL5UUP-11" value="đây là số chẵn" style="shape=parallelogram;perimeter=parallelogramPerimeter;whiteSpace=wrap;html=1;fixedSize=1;" vertex="1" parent="WIyWlLk6GJQsqaUBKTNV-1">
          <mxGeometry x="420" y="310" width="120" height="60" as="geometry" />
        </mxCell>
        <mxCell id="VpipOVB_wmoP1vpL5UUP-16" style="edgeStyle=orthogonalEdgeStyle;rounded=0;orthogonalLoop=1;jettySize=auto;html=1;exitX=1;exitY=0.5;exitDx=0;exitDy=0;entryX=0;entryY=0.5;entryDx=0;entryDy=0;" edge="1" parent="WIyWlLk6GJQsqaUBKTNV-1" source="VpipOVB_wmoP1vpL5UUP-12" target="VpipOVB_wmoP1vpL5UUP-13">
          <mxGeometry relative="1" as="geometry" />
        </mxCell>
        <mxCell id="VpipOVB_wmoP1vpL5UUP-12" value="đây là số lẻ" style="shape=parallelogram;perimeter=parallelogramPerimeter;whiteSpace=wrap;html=1;fixedSize=1;" vertex="1" parent="WIyWlLk6GJQsqaUBKTNV-1">
          <mxGeometry x="250" y="200" width="120" height="60" as="geometry" />
        </mxCell>
        <mxCell id="VpipOVB_wmoP1vpL5UUP-13" value="end" style="ellipse;whiteSpace=wrap;html=1;" vertex="1" parent="WIyWlLk6GJQsqaUBKTNV-1">
          <mxGeometry x="420" y="190" width="120" height="80" as="geometry" />
        </mxCell>
        <mxCell id="VpipOVB_wmoP1vpL5UUP-17" value="no" style="text;html=1;align=center;verticalAlign=middle;resizable=0;points=[];autosize=1;strokeColor=none;fillColor=none;" vertex="1" parent="WIyWlLk6GJQsqaUBKTNV-1">
          <mxGeometry x="300" y="268" width="40" height="30" as="geometry" />
        </mxCell>
        <mxCell id="VpipOVB_wmoP1vpL5UUP-19" value="yes" style="text;html=1;align=center;verticalAlign=middle;resizable=0;points=[];autosize=1;strokeColor=none;fillColor=none;" vertex="1" parent="WIyWlLk6GJQsqaUBKTNV-1">
          <mxGeometry x="350" y="338" width="40" height="30" as="geometry" />
        </mxCell>
      </root>
    </mxGraphModel>
  </diagram>
</mxfile>
